<?xml version="1.0" encoding="UTF-8" standalone="no"?>
<!DOCTYPE svg PUBLIC "-//W3C//DTD SVG 1.1//EN"
 "http://www.w3.org/Graphics/SVG/1.1/DTD/svg11.dtd">
<!-- Generated by graphviz version 2.49.3 (0)
 -->
<!-- Title: mygraph Pages: 1 -->
<svg width="684pt" height="404pt"
 viewBox="0.00 0.00 683.90 404.00" xmlns="http://www.w3.org/2000/svg" xmlns:xlink="http://www.w3.org/1999/xlink">
<g id="graph0" class="graph" transform="scale(1 1) rotate(0) translate(4 400)">
<title>mygraph</title>
<polygon fill="white" stroke="transparent" points="-4,4 -4,-400 679.9,-400 679.9,4 -4,4"/>
<!-- //absl/random:random -->
<g id="node1" class="node">
<title>//absl/random:random</title>
<polygon fill="none" stroke="black" points="308,-396 159,-396 159,-360 308,-360 308,-396"/>
<text text-anchor="middle" x="233.5" y="-374.3" font-family="Helvetica,Arial,sans-serif" font-size="14.00">//absl/random:random</text>
</g>
<!-- //absl/random:distributions -->
<g id="node2" class="node">
<title>//absl/random:distributions</title>
<polygon fill="none" stroke="black" points="175,-252 0,-252 0,-216 175,-216 175,-252"/>
<text text-anchor="middle" x="87.5" y="-230.3" font-family="Helvetica,Arial,sans-serif" font-size="14.00">//absl/random:distributions</text>
</g>
<!-- //absl/random:random&#45;&gt;//absl/random:distributions -->
<g id="edge1" class="edge">
<title>//absl/random:random&#45;&gt;//absl/random:distributions</title>
<path fill="none" stroke="black" d="M215.89,-359.87C190.13,-334.82 142.05,-288.05 112.59,-259.41"/>
<polygon fill="black" stroke="black" points="114.78,-256.65 105.17,-252.19 109.9,-261.67 114.78,-256.65"/>
</g>
<!-- //absl/random:seed_sequences -->
<g id="node3" class="node">
<title>//absl/random:seed_sequences</title>
<polygon fill="none" stroke="black" points="498,-324 293,-324 293,-288 498,-288 498,-324"/>
<text text-anchor="middle" x="395.5" y="-302.3" font-family="Helvetica,Arial,sans-serif" font-size="14.00">//absl/random:seed_sequences</text>
</g>
<!-- //absl/random:random&#45;&gt;//absl/random:seed_sequences -->
<g id="edge2" class="edge">
<title>//absl/random:random&#45;&gt;//absl/random:seed_sequences</title>
<path fill="none" stroke="black" d="M273.13,-359.88C295.28,-350.31 323.06,-338.3 346.56,-328.15"/>
<polygon fill="black" stroke="black" points="348.21,-331.25 356,-324.07 345.43,-324.82 348.21,-331.25"/>
</g>
<!-- //absl/random/internal:pool_urbg -->
<g id="node4" class="node">
<title>//absl/random/internal:pool_urbg</title>
<polygon fill="none" stroke="black" points="342,-180 131,-180 131,-144 342,-144 342,-180"/>
<text text-anchor="middle" x="236.5" y="-158.3" font-family="Helvetica,Arial,sans-serif" font-size="14.00">//absl/random/internal:pool_urbg</text>
</g>
<!-- //absl/random:random&#45;&gt;//absl/random/internal:pool_urbg -->
<g id="edge3" class="edge">
<title>//absl/random:random&#45;&gt;//absl/random/internal:pool_urbg</title>
<path fill="none" stroke="black" d="M233.74,-359.85C234.26,-322.83 235.49,-235.18 236.12,-190.39"/>
<polygon fill="black" stroke="black" points="239.62,-190.28 236.26,-180.23 232.62,-190.18 239.62,-190.28"/>
</g>
<!-- //absl/random/internal:nonsecure_base -->
<g id="node5" class="node">
<title>//absl/random/internal:nonsecure_base</title>
<polygon fill="none" stroke="black" points="521,-252 270,-252 270,-216 521,-216 521,-252"/>
<text text-anchor="middle" x="395.5" y="-230.3" font-family="Helvetica,Arial,sans-serif" font-size="14.00">//absl/random/internal:nonsecure_base</text>
</g>
<!-- //absl/random:random&#45;&gt;//absl/random/internal:nonsecure_base -->
<g id="edge4" class="edge">
<title>//absl/random:random&#45;&gt;//absl/random/internal:nonsecure_base</title>
<path fill="none" stroke="black" d="M239.44,-359.88C247,-340.29 261.72,-308.31 283.5,-288 297.7,-274.76 315.82,-264.26 333.32,-256.22"/>
<polygon fill="black" stroke="black" points="335.19,-259.23 342.95,-252.01 332.39,-252.81 335.19,-259.23"/>
</g>
<!-- //absl/strings:strings -->
<g id="node6" class="node">
<title>//absl/strings:strings</title>
<polygon fill="none" stroke="black" points="299.5,-36 163.5,-36 163.5,0 299.5,0 299.5,-36"/>
<text text-anchor="middle" x="231.5" y="-14.3" font-family="Helvetica,Arial,sans-serif" font-size="14.00">//absl/strings:strings</text>
</g>
<!-- //absl/random:distributions&#45;&gt;//absl/strings:strings -->
<g id="edge5" class="edge">
<title>//absl/random:distributions&#45;&gt;//absl/strings:strings</title>
<path fill="none" stroke="black" d="M92.08,-215.78C97.47,-197.22 107.48,-167.22 121.5,-144 144.96,-105.15 181.02,-66.93 205.4,-43.19"/>
<polygon fill="black" stroke="black" points="208.09,-45.46 212.88,-36.01 203.24,-40.41 208.09,-45.46"/>
</g>
<!-- //absl/random:seed_sequences&#45;&gt;//absl/random/internal:pool_urbg -->
<g id="edge8" class="edge">
<title>//absl/random:seed_sequences&#45;&gt;//absl/random/internal:pool_urbg</title>
<path fill="none" stroke="black" d="M316.83,-287.95C296.08,-280.06 275.36,-268.6 260.5,-252 245.37,-235.1 239.64,-209.63 237.53,-190.26"/>
<polygon fill="black" stroke="black" points="241.02,-189.89 236.7,-180.22 234.04,-190.47 241.02,-189.89"/>
</g>
<!-- //absl/random:seed_sequences&#45;&gt;//absl/random/internal:nonsecure_base -->
<g id="edge9" class="edge">
<title>//absl/random:seed_sequences&#45;&gt;//absl/random/internal:nonsecure_base</title>
<path fill="none" stroke="black" d="M395.5,-287.7C395.5,-279.98 395.5,-270.71 395.5,-262.11"/>
<polygon fill="black" stroke="black" points="399,-262.1 395.5,-252.1 392,-262.1 399,-262.1"/>
</g>
<!-- //absl/random/internal:seed_material -->
<g id="node7" class="node">
<title>//absl/random/internal:seed_material</title>
<polygon fill="none" stroke="black" points="488.5,-108 252.5,-108 252.5,-72 488.5,-72 488.5,-108"/>
<text text-anchor="middle" x="370.5" y="-86.3" font-family="Helvetica,Arial,sans-serif" font-size="14.00">//absl/random/internal:seed_material</text>
</g>
<!-- //absl/random:seed_sequences&#45;&gt;//absl/random/internal:seed_material -->
<g id="edge6" class="edge">
<title>//absl/random:seed_sequences&#45;&gt;//absl/random/internal:seed_material</title>
<path fill="none" stroke="black" d="M479.69,-287.92C578.4,-264.16 721.41,-215.81 661.5,-144 640.3,-118.59 566.66,-105.33 498.77,-98.43"/>
<polygon fill="black" stroke="black" points="499.1,-94.94 488.8,-97.45 498.42,-101.91 499.1,-94.94"/>
</g>
<!-- //absl/random/internal:salted_seed_seq -->
<g id="node8" class="node">
<title>//absl/random/internal:salted_seed_seq</title>
<polygon fill="none" stroke="black" points="652,-180 399,-180 399,-144 652,-144 652,-180"/>
<text text-anchor="middle" x="525.5" y="-158.3" font-family="Helvetica,Arial,sans-serif" font-size="14.00">//absl/random/internal:salted_seed_seq</text>
</g>
<!-- //absl/random:seed_sequences&#45;&gt;//absl/random/internal:salted_seed_seq -->
<g id="edge7" class="edge">
<title>//absl/random:seed_sequences&#45;&gt;//absl/random/internal:salted_seed_seq</title>
<path fill="none" stroke="black" d="M482.12,-287.91C500.73,-280.08 518.18,-268.65 529.5,-252 541.75,-233.98 539.31,-208.83 534.63,-189.86"/>
<polygon fill="black" stroke="black" points="537.95,-188.73 531.88,-180.05 531.21,-190.62 537.95,-188.73"/>
</g>
<!-- //absl/random/internal:pool_urbg&#45;&gt;//absl/random/internal:seed_material -->
<g id="edge13" class="edge">
<title>//absl/random/internal:pool_urbg&#45;&gt;//absl/random/internal:seed_material</title>
<path fill="none" stroke="black" d="M269.28,-143.88C287.13,-134.55 309.4,-122.92 328.5,-112.94"/>
<polygon fill="black" stroke="black" points="330.35,-115.92 337.59,-108.19 327.11,-109.72 330.35,-115.92"/>
</g>
<!-- //absl/random/internal:nonsecure_base&#45;&gt;//absl/random/internal:pool_urbg -->
<g id="edge10" class="edge">
<title>//absl/random/internal:nonsecure_base&#45;&gt;//absl/random/internal:pool_urbg</title>
<path fill="none" stroke="black" d="M356.6,-215.88C334.87,-206.31 307.6,-194.3 284.54,-184.15"/>
<polygon fill="black" stroke="black" points="285.83,-180.89 275.27,-180.07 283.01,-187.3 285.83,-180.89"/>
</g>
<!-- //absl/random/internal:nonsecure_base&#45;&gt;//absl/random/internal:seed_material -->
<g id="edge12" class="edge">
<title>//absl/random/internal:nonsecure_base&#45;&gt;//absl/random/internal:seed_material</title>
<path fill="none" stroke="black" d="M392.48,-215.87C388.22,-191.67 380.4,-147.21 375.32,-118.39"/>
<polygon fill="black" stroke="black" points="378.71,-117.43 373.53,-108.19 371.81,-118.64 378.71,-117.43"/>
</g>
<!-- //absl/random/internal:nonsecure_base&#45;&gt;//absl/random/internal:salted_seed_seq -->
<g id="edge11" class="edge">
<title>//absl/random/internal:nonsecure_base&#45;&gt;//absl/random/internal:salted_seed_seq</title>
<path fill="none" stroke="black" d="M427.3,-215.88C444.61,-206.55 466.22,-194.92 484.76,-184.94"/>
<polygon fill="black" stroke="black" points="486.43,-188.01 493.58,-180.19 483.11,-181.85 486.43,-188.01"/>
</g>
<!-- //absl/random/internal:seed_material&#45;&gt;//absl/strings:strings -->
<g id="edge15" class="edge">
<title>//absl/random/internal:seed_material&#45;&gt;//absl/strings:strings</title>
<path fill="none" stroke="black" d="M336.5,-71.88C317.9,-62.51 294.67,-50.81 274.79,-40.8"/>
<polygon fill="black" stroke="black" points="276.14,-37.56 265.63,-36.19 272.99,-43.81 276.14,-37.56"/>
</g>
<!-- //absl/random/internal:salted_seed_seq&#45;&gt;//absl/random/internal:seed_material -->
<g id="edge14" class="edge">
<title>//absl/random/internal:salted_seed_seq&#45;&gt;//absl/random/internal:seed_material</title>
<path fill="none" stroke="black" d="M487.58,-143.88C466.49,-134.35 440.04,-122.41 417.63,-112.28"/>
<polygon fill="black" stroke="black" points="418.85,-108.99 408.29,-108.07 415.97,-115.37 418.85,-108.99"/>
</g>
</g>
</svg>
